<svg width="257" height="24" viewBox="0 0 257 24" fill="none" xmlns="http://www.w3.org/2000/svg">
<g clip-path="url(#clip0_51_144)">
<path d="M122.904 0.00303213C121.507 0.0457313 119.998 0.192129 118.424 0.899715C117.265 1.37246 116.667 1.85435 116.667 1.85435C118.149 1.40296 121.147 1.25351 122.505 1.53715C125.481 2.15934 128.638 4.42545 128.144 9.01866C127.607 14.0236 121.172 15.9573 117.664 14.2829L115.252 22.7251C116.042 23.39 117.799 23.9969 118.839 23.9969C119.083 23.9969 119.327 23.9756 119.568 23.9359L119.882 23.8841L120.797 18.1258C124.82 19.175 131.224 15.9969 131.804 10.2142C132.466 3.65076 127.662 -0.137265 122.904 0.00303213Z" fill="#D71920"/>
<path d="M123.111 9.03083L124.316 8.28054L125.31 6.44448L123.916 4.22412L121.4 4.66941L117.03 7.33506L115.389 9.43342L116.761 11.7941L119.576 11.242L120.18 10.8913L127.97 23.9847L128.287 23.9085C129.443 23.6309 130.461 23.0087 131.236 22.1059L131.453 21.8528L123.108 9.02778L123.111 9.03083Z" fill="#D71920"/>
<path d="M205.357 23.9084H201.426C199.105 23.9084 197.586 22.5756 197.586 19.7605V2.04639H201.95V19.6964C201.95 19.9709 202.173 20.1905 202.444 20.1905H204.488C204.762 20.1905 204.982 19.9679 204.982 19.6964V2.04639H209.194V19.7574C209.194 22.5756 207.678 23.9053 205.354 23.9053L205.357 23.9084Z" fill="#231F20"/>
<path d="M173.1 19.8521V6.103C173.1 3.28485 174.616 1.95508 176.94 1.95508H181.183C183.504 1.95508 185.023 3.28485 185.023 6.103V19.8521C185.023 22.6703 183.507 24.0001 181.183 24.0001H176.94C174.619 24.0001 173.1 22.6672 173.1 19.8521ZM177.465 6.16705V19.7911C177.465 20.1327 177.62 20.2852 177.959 20.2852H180.158C180.5 20.2852 180.652 20.1297 180.652 19.7911V6.164C180.652 5.82241 180.496 5.66991 180.158 5.66991H177.959C177.617 5.66991 177.465 5.82545 177.465 6.164V6.16705Z" fill="#231F20"/>
<path d="M230.841 19.8521V6.103C230.841 3.28485 232.357 1.95508 234.681 1.95508H238.923C241.244 1.95508 242.763 3.28485 242.763 6.103V19.8521C242.763 22.6703 241.247 24.0001 238.923 24.0001H234.681C232.36 24.0001 230.841 22.6672 230.841 19.8521ZM235.206 6.16705V19.7911C235.206 20.1327 235.361 20.2852 235.7 20.2852H237.899C238.24 20.2852 238.393 20.1297 238.393 19.7911V6.164C238.393 5.82241 238.237 5.66991 237.899 5.66991H235.7C235.358 5.66991 235.206 5.82545 235.206 6.164V6.16705Z" fill="#231F20"/>
<path d="M251.984 2.14111V11.8643L247.845 2.14416L244.429 2.14111V23.814H248.641V13.4107L253.066 23.814H256.196V2.14111H251.984Z" fill="#231F20"/>
<path d="M224.812 2.14111H229.176V23.8171H224.812V2.14111Z" fill="#231F20"/>
<path d="M195.939 20.0992H191.053V2.14111H186.688V23.814H196.863L195.939 20.0992Z" fill="#231F20"/>
<path d="M172.38 2.15624L167.881 2.14709L165.673 16.6557L163.44 2.13184L158.789 2.14099L162.781 23.823L168.406 23.8169L172.38 2.15624Z" fill="#231F20"/>
<path d="M145.77 23.8139L145.55 23.2862C145.55 23.2862 145.55 23.2771 145.547 23.271L145.135 22.2859L143.314 17.9092V17.6896C144.431 17.101 145.114 15.8901 145.114 13.9992V6.27975C145.114 3.45856 143.595 2.12573 141.268 2.12573H137.849H133.488V23.8291H137.849V23.4265C137.849 23.4052 137.858 23.3899 137.858 23.3655V18.5588H139.221L141.143 23.4265C141.143 23.4265 141.158 23.4509 141.164 23.4631L141.308 23.8291H141.722C141.722 23.8291 141.728 23.8291 141.732 23.8291H145.236C145.257 23.8291 145.273 23.82 145.291 23.8169H145.77V23.8139ZM137.858 14.8379V5.84666H140.246C140.588 5.84666 140.743 6.00221 140.743 6.3438V14.3438C140.743 14.6854 140.588 14.8409 140.246 14.8409H137.858V14.8379Z" fill="#231F20"/>
<path d="M151.332 20.0992V14.6489L156.255 14.6428L155.801 10.928H151.332V5.86814H158.07L157.441 2.15026L146.965 2.14111V23.814H157.597L158.103 20.0992H151.332Z" fill="#231F20"/>
<path d="M210.287 2.14111L211.342 5.85594H211.474H214.871V23.814H214.883H214.926H215.033H215.042H218.961H218.97H219.08H219.123H219.135V5.85594H222.53H222.664L223.716 2.14111H210.287Z" fill="#231F20"/>
<path d="M13.0273 19.8521V6.103C13.0273 3.28485 14.5432 1.95508 16.8672 1.95508H21.1097C23.4307 1.95508 24.9496 3.28485 24.9496 6.103V19.8521C24.9496 22.6703 23.4337 24.0001 21.1097 24.0001H16.8672C14.5462 24.0001 13.0273 22.6672 13.0273 19.8521ZM17.3918 6.16705V19.7911C17.3918 20.1327 17.5474 20.2852 17.8859 20.2852H20.0849C20.4265 20.2852 20.579 20.1297 20.579 19.7911V6.164C20.579 5.82241 20.4235 5.66991 20.0849 5.66991H17.8859C17.5443 5.66991 17.3918 5.82545 17.3918 6.164V6.16705Z" fill="#231F20"/>
<path d="M66.2822 23.9084H62.3509C60.0299 23.9084 58.511 22.5756 58.511 19.7605V2.04639H62.8755V19.6964C62.8755 19.9709 63.0981 20.1905 63.3695 20.1905H65.413C65.6875 20.1905 65.9071 19.9679 65.9071 19.6964V2.04639H70.1191V19.7574C70.1191 22.5756 68.6032 23.9053 66.2792 23.9053L66.2822 23.9084Z" fill="#231F20"/>
<path d="M85.0234 2.14111H89.3879V23.8171H85.0234V2.14111Z" fill="#231F20"/>
<path d="M90.7821 10.501V6.103C90.7821 3.28485 92.298 1.95508 94.622 1.95508H97.8977C100.219 1.95508 101.738 3.28485 101.738 6.103V8.54905L97.5256 8.07631V6.164C97.5256 5.82241 97.37 5.66991 97.0315 5.66991H95.6468C95.3052 5.66991 95.1527 5.82546 95.1527 6.164V10.437C95.1527 10.7786 95.3083 10.9311 95.6468 10.9311H98.6815C101.002 10.9311 102.521 12.2639 102.521 15.079V19.846C102.521 22.6642 101.006 23.994 98.6815 23.994H94.4695C92.1485 23.994 90.6296 22.6611 90.6296 19.846V16.9577L94.8416 16.5857V19.782C94.8416 20.1236 94.9972 20.2761 95.3357 20.2761H97.6567C97.9983 20.2761 98.1508 20.1205 98.1508 19.782V15.1369C98.1508 14.7953 97.9953 14.6428 97.6567 14.6428H94.622C92.301 14.6428 90.7821 13.31 90.7821 10.4949V10.501Z" fill="#231F20"/>
<path d="M37.2281 2.14111L33.6658 12.087C33.6658 12.087 30.2224 2.14111 30.076 2.14111H26.5137V23.8171H30.7256V13.6302L32.6014 18.9859H34.6906L36.5754 13.6302V23.8171H40.9399V2.14111H37.2251H37.2281Z" fill="#231F20"/>
<path d="M53.2242 2.14111L49.6619 12.087C49.6619 12.087 46.2185 2.14111 46.0721 2.14111H42.5098V23.8171H46.7217V13.6302L48.5974 18.9859H50.6867L52.5715 13.6302V23.8171H56.936V2.14111H53.2212H53.2242Z" fill="#231F20"/>
<path d="M79.2442 2.14111V11.8643L75.1054 2.14416L71.6895 2.14111V23.814H75.9014V13.4107L80.3269 23.814H83.4561V2.14111H79.2442Z" fill="#231F20"/>
<path d="M7.24361 9.40609L11.4495 8.98215L11.4556 6.103C11.4556 3.28485 9.93976 1.95508 7.61571 1.95508H3.83683C1.51582 1.95508 0 3.28485 0 6.103V19.8521C0 22.6703 1.51582 24.0001 3.83988 24.0001H7.61876C9.93976 24.0001 11.4586 22.6672 11.4586 19.8521L11.4525 16.2441L7.24666 16.668V19.7911C7.24666 20.1327 7.09417 20.2852 6.75257 20.2852H4.86466C4.52307 20.2852 4.37057 20.1297 4.37057 19.7911V6.164C4.37057 5.82241 4.52612 5.66991 4.86466 5.66991H6.75257C7.09417 5.66991 7.24666 5.82545 7.24666 6.164V9.40609H7.24361Z" fill="#231F20"/>
<path d="M102.064 2.14111L103.119 5.85594H103.25H106.648V23.814H106.66H106.703H106.812H106.819H110.738H110.747H110.857H110.899H110.912V5.85594H114.306H114.44L115.493 2.14111H102.064Z" fill="#231F20"/>
</g>
<defs>
<clipPath id="clip0_51_144">
<rect width="256.195" height="24" fill="white"/>
</clipPath>
</defs>
</svg>
